HIERARCHY
ROOT Hips
{
  OFFSET 44.605 84.1087 -4.6582
  CHANNELS 6 Xposition Yposition Zposition Zrotation Xrotation Yrotation
  JOINT spine
  {
    OFFSET 0 6.2448 0.359107
    CHANNELS 3 Zrotation Xrotation Yrotation
    JOINT spine1
    {
      OFFSET 0 9.06941 0
      CHANNELS 3 Zrotation Xrotation Yrotation
      JOINT spine2
      {
        OFFSET 0 8.69014 0
        CHANNELS 3 Zrotation Xrotation Yrotation
        JOINT Neck
        {
          OFFSET 0 22.3112 1.06372
          CHANNELS 3 Zrotation Xrotation Yrotation
          JOINT Head
          {
            OFFSET 0 6.74081 0
            CHANNELS 3 Zrotation Xrotation Yrotation
            End Site
            {
              OFFSET 0 16.3165 -5.38097
            }
          }
        }
        JOINT RightShoulder
        {
          OFFSET -3.65916 9.38468 -0.509514
          CHANNELS 3 Zrotation Xrotation Yrotation
          JOINT RightArm
          {
            OFFSET 0 12.3089 0
            CHANNELS 3 Zrotation Xrotation Yrotation
            JOINT RightArmRoll
            {
              OFFSET 0 6.21375 0
              CHANNELS 3 Zrotation Xrotation Yrotation
              JOINT RightForeArm
              {
                OFFSET 0 18.0985 0
                CHANNELS 3 Zrotation Xrotation Yrotation
                JOINT RightForeArmRoll
                {
                  OFFSET 0 6.97279 0
                  CHANNELS 3 Zrotation Xrotation Yrotation
                  JOINT RightHand
                  {
                    OFFSET 0 13.9929 0
                    CHANNELS 3 Zrotation Xrotation Yrotation
                    End Site
                    {
                      OFFSET 0 0 0
                    }
                  }
                }
              }
            }
          }
        }
        JOINT LeftShoulder
        {
          OFFSET 3.65916 9.38468 -0.509514
          CHANNELS 3 Zrotation Xrotation Yrotation
          JOINT LeftArm
          {
            OFFSET 0 12.3089 0
            CHANNELS 3 Zrotation Xrotation Yrotation
            JOINT LeftArmRoll
            {
              OFFSET 0 6.21375 0
              CHANNELS 3 Zrotation Xrotation Yrotation
              JOINT LeftForeArm
              {
                OFFSET 0 18.0985 0
                CHANNELS 3 Zrotation Xrotation Yrotation
                JOINT LeftForeArmRoll
                {
                  OFFSET 0 6.97279 0
                  CHANNELS 3 Zrotation Xrotation Yrotation
                  JOINT LeftHand
                  {
                    OFFSET 0 13.9929 0
                    CHANNELS 3 Zrotation Xrotation Yrotation
                    End Site
                    {
                      OFFSET 0 0 0
                    }
                  }
                }
              }
            }
          }
        }
      }
    }
  }
  JOINT RightUpLeg
  {
    OFFSET -5.53516 -1.015 -0.851454
    CHANNELS 3 Zrotation Xrotation Yrotation
    JOINT RightUpLegRoll
    {
      OFFSET 0 16.4075 0
      CHANNELS 3 Zrotation Xrotation Yrotation
      JOINT RightLeg
      {
        OFFSET 0 -20.3181 0
        CHANNELS 3 Zrotation Xrotation Yrotation
        JOINT RightLegRoll
        {
          OFFSET 0 20.3846 0
          CHANNELS 3 Zrotation Xrotation Yrotation
          JOINT RightFoot
          {
            OFFSET 0 16.9668 0
            CHANNELS 3 Zrotation Xrotation Yrotation
            JOINT RightToeBase
            {
              OFFSET 0 14.1834 0
              CHANNELS 3 Zrotation Xrotation Yrotation
              End Site
              {
                OFFSET 0.0060118 6.8689 -0.791745
              }
            }
          }
        }
      }
    }
  }
  JOINT LeftUpLeg
  {
    OFFSET 5.53516 -1.015 -0.851454
    CHANNELS 3 Zrotation Xrotation Yrotation
    JOINT LeftUpLegRoll
    {
      OFFSET 0 16.4076 0
      CHANNELS 3 Zrotation Xrotation Yrotation
      JOINT LeftLeg
      {
        OFFSET 0 20.3181 0
        CHANNELS 3 Zrotation Xrotation Yrotation
        JOINT LeftLegRoll
        {
          OFFSET 0 20.5731 0
          CHANNELS 3 Zrotation Xrotation Yrotation
          JOINT LeftFoot
          {
            OFFSET 0 16.7783 0
            CHANNELS 3 Zrotation Xrotation Yrotation
            JOINT LeftToeBase
            {
              OFFSET 0 14.1834 0
              CHANNELS 3 Zrotation Xrotation Yrotation
              End Site
              {
                OFFSET -0.0269423 6.86889 -0.791746
              }
            }
          }
        }
      }
    }
  }
}
MOTION
Frames: 10
Frame Time: 0.00208333
42.7148 82.6105 -3.2195 -1.51508 6.47816 0.77897 -0.0332468 -2.00045 0.165988 -0.0622557 0.00182625 0.335091 -0.0662927 1.64689 0.336224 4.564 -0.412233 -0.92079 -1.75752 2.29381 -0.0752242 64.2032 -3.52391 -2.56462 108.328 8.16777 6.03766 6.52621e-006 -5.76373e-007 -1.63151e-006 12.3608 16.669 -2.37152 -1.33336e-006 1.20101e-006 -3 8.02893 -4.95143 0.697686 -59.8293 -8.80962 5.47744 -114.711 10.8427 -7.93006 1.99755e-006 -1.00587e-005 -3.55414e-008 -6.73498 25.3971 2.1669 5.98254e-007 9.18861e-007 3 -8.02985 -4.95147 -0.69767 -178.603 22.2332 -3.28134 180 7.01573e-015 179.045 -177.005 38.3675 177.753 1.12062e-006 7.64849e-007 1.04877 -24.4264 74.2415 26.5992 8.20384 33.021 -0.448316 -167.839 22.3459 -6.28623 4.54188e-006 -4.6773e-006 -1.01925 3.80267 -42.9077 3.0849 -8.88847e-007 -1.61835e-006 -1.1019 20.883 71.4449 -22.8619 -7.26156 32.6339 -6.11791 
42.6805 82.3488 -3.21342 -1.57303 6.53073 0.767604 -0.0241071 -2.00179 0.169878 -0.0438952 -0.000836319 0.34201 -0.048009 1.64423 0.342837 4.63071 -0.400382 -0.918922 -1.78575 2.21774 -0.0622331 64.2618 -3.54363 -2.58009 108.218 8.34417 5.94761 6.52621e-006 -5.76373e-007 -1.63151e-006 12.4192 16.643 -2.37326 -1.33336e-006 1.20101e-006 -3 8.02893 -4.95143 0.697686 -59.8382 -8.80704 5.476 -114.646 10.9808 -7.84773 1.99755e-006 -1.00587e-005 -3.55414e-008 -6.78087 25.3832 2.17702 5.98254e-007 9.18861e-007 3 -8.02985 -4.95147 -0.69767 -178.435 22.6158 -3.37934 180 7.01572e-015 179.038 -176.885 39.2849 177.687 1.12062e-006 7.64851e-007 1.12336 -25.3611 74.8785 27.6311 8.18959 33.2023 -0.344815 -167.718 22.6979 -6.36454 4.54188e-006 -4.6773e-006 -1.01936 4.01289 -43.7648 3.20359 -8.88845e-007 -1.61839e-006 -1.20092 21.2983 71.943 -23.3927 -7.19396 32.832 -6.41183 
42.6532 82.0612 -3.16961 -1.6352 6.5886 0.755056 -0.014551 -2.00375 0.173604 -0.0247054 -0.00471895 0.348562 -0.0288912 1.64035 0.34907 4.70287 -0.393816 -0.916302 -1.81734 2.14362 -0.0479418 64.3303 -3.56191 -2.59535 108.1 8.52571 5.85592 6.52621e-006 -5.76373e-007 -1.63151e-006 12.4799 16.627 -2.37658 -1.33336e-006 1.20101e-006 -3 8.02893 -4.95143 0.697686 -59.8424 -8.80637 5.47566 -114.584 11.1196 -7.76342 1.99755e-006 -1.00587e-005 -3.55414e-008 -6.82777 25.368 2.18737 5.98254e-007 9.18861e-007 3 -8.02985 -4.95147 -0.69767 -178.262 23.002 -3.48006 180 7.01571e-015 179.032 -176.771 40.1864 177.623 1.12062e-006 7.64854e-007 1.19906 -26.4103 75.5316 28.78 8.18019 33.2743 -0.280743 -167.591 23.0562 -6.44046 4.54188e-006 -4.6773e-006 -1.01899 4.23744 -44.6097 3.32782 -8.88843e-007 -1.61843e-006 -1.31185 21.7999 72.5064 -24.0262 -7.15557 32.941 -6.57416 
42.6552 81.7996 -3.166 -1.70292 6.65378 0.740292 -0.00464575 -2.00699 0.177411 -0.00481174 -0.011165 0.355253 -0.00907105 1.6339 0.35543 4.7848 -0.388538 -0.913402 -1.85455 2.06953 -0.0319539 64.4146 -3.57842 -2.61064 107.967 8.71265 5.76047 6.52621e-006 -5.76373e-007 -1.63151e-006 12.5461 16.6219 -2.38179 -1.33336e-006 1.20101e-006 -3 8.02893 -4.95143 0.697686 -59.8389 -8.80852 5.47694 -114.525 11.2579 -7.67486 1.99755e-006 -1.00587e-005 -3.55414e-008 -6.87797 25.3533 2.19857 5.98254e-007 9.18861e-007 3 -8.02985 -4.95147 -0.69767 -178.078 23.4016 -3.58482 180 7.01569e-015 179.026 -176.662 41.0947 177.561 1.12062e-006 7.64857e-007 1.27767 -27.641 76.221 30.1164 8.1753 33.2548 -0.249547 -167.455 23.4276 -6.51838 4.54188e-006 -4.6773e-006 -1.01789 4.47858 -45.4596 3.45849 -8.88841e-007 -1.61847e-006 -1.43593 22.4203 73.1437 -24.7964 -7.14264 32.9774 -6.6273 
42.6302 81.4897 -3.16119 -1.77532 6.72522 0.723735 0.00561478 -2.01124 0.181263 0.0157966 -0.0196259 0.362006 0.0114632 1.62544 0.361839 4.87429 -0.385652 -0.910197 -1.89632 1.99589 -0.0146364 64.5114 -3.59396 -2.6262 107.823 8.90471 5.66214 6.52621e-006 -5.76373e-007 -1.63151e-006 12.6165 16.626 -2.38855 -1.33336e-006 1.20101e-006 -3 8.02893 -4.95143 0.697686 -59.8296 -8.81307 5.47962 -114.469 11.3964 -7.58298 1.99755e-006 -1.00587e-005 -3.55414e-008 -6.93052 25.3385 2.21035 5.98254e-007 9.18861e-007 3 -8.02985 -4.95147 -0.69767 -177.884 23.8124 -3.69364 180 7.01568e-015 179.019 -176.555 42.0075 177.5 1.12062e-006 7.6486e-007 1.35886 -29.081 76.9378 31.6674 8.17452 33.154 -0.247481 -167.31 23.8098 -6.59729 4.54188e-006 -4.6773e-006 -1.01621 4.73567 -46.3125 3.59601 -8.8884e-007 -1.6185e-006 -1.57159 23.1743 73.8434 -25.7163 -7.15275 32.9493 -6.58327 
42.5796 81.2226 -3.16449 -1.85153 6.8019 0.705807 0.0162367 -2.01622 0.18512 0.0371301 -0.029553 0.368743 0.0327231 1.61551 0.368219 4.9691 -0.386263 -0.90666 -1.9416 1.92315 0.00364364 64.6177 -3.60934 -2.64228 107.672 9.10162 5.56182 6.52621e-006 -5.76373e-007 -1.63151e-006 12.6894 16.6375 -2.39653 -1.33336e-006 1.20101e-006 -3 8.02893 -4.95143 0.697686 -59.8161 -8.81963 5.48347 -114.415 11.5357 -7.48874 1.99755e-006 -1.00587e-005 -3.55414e-008 -6.98446 25.3229 2.22245 5.98254e-007 9.18861e-007 3 -8.02985 -4.95147 -0.69767 -177.683 24.2322 -3.8065 180 7.01567e-015 179.013 -176.451 42.9224 177.44 1.12062e-006 7.64862e-007 1.44227 -30.7636 77.6726 33.4655 8.17716 32.9823 -0.27064 -167.159 24.2008 -6.67617 4.54188e-006 -4.6773e-006 -1.01412 5.00807 -47.1661 3.74082 -8.88839e-007 -1.61854e-006 -1.71723 24.0803 74.5939 -26.8023 -7.1827 32.8648 -6.45453 
42.5785 80.897 -3.23037 -1.93069 6.88277 0.686931 0.0272259 -2.02166 0.188946 0.0591991 -0.0403978 0.375384 0.0547196 1.60467 0.374493 5.06702 -0.391476 -0.902763 -1.98934 1.85175 0.0225194 64.7302 -3.62536 -2.65911 107.516 9.30312 5.46042 6.52621e-006 -5.76373e-007 -1.63151e-006 12.7634 16.6546 -2.40539 -1.33336e-006 1.20101e-006 -3 8.02893 -4.95143 0.697686 -59.8001 -8.82779 5.48828 -114.363 11.6765 -7.39308 1.99755e-006 -1.00587e-005 -3.55414e-008 -7.03882 25.3059 2.23462 5.98254e-007 9.18861e-007 3 -8.02985 -4.95147 -0.69767 -177.474 24.6591 -3.92339 180 7.01565e-015 179.006 -176.346 43.8371 177.378 1.12062e-006 7.64863e-007 1.52757 -32.7279 78.4157 35.5491 8.18236 32.75 -0.315027 -167.004 24.5985 -6.754 4.54188e-006 -4.6773e-006 -1.01178 5.29514 -48.0183 3.89333 -8.88839e-007 -1.61856e-006 -1.87128 25.1603 75.3831 -28.0744 -7.22876 32.7318 -6.25384 
42.5436 80.6382 -3.208 -2.01195 6.9668 0.667532 0.0385883 -2.02729 0.192704 0.0820136 -0.0516118 0.381854 0.0774637 1.59345 0.380581 5.16582 -0.402398 -0.89848 -2.03847 1.78212 0.0416239 64.8457 -3.64282 -2.67695 107.36 9.50893 5.35881 6.52621e-006 -5.76373e-007 -1.63151e-006 12.837 16.6756 -2.4148 -1.33336e-006 1.20101e-006 -3 8.02893 -4.95143 0.697686 -59.7834 -8.83713 5.49382 -114.312 11.8196 -7.29694 1.99755e-006 -1.00587e-005 -3.55414e-008 -7.09264 25.2867 2.2466 5.98254e-007 9.18861e-007 3 -8.02985 -4.95147 -0.69767 -177.26 25.0908 -4.0443 180 7.01564e-015 178.999 -176.241 44.7492 177.315 1.12062e-006 7.64864e-007 1.61444 -35.0191 79.1565 37.9628 8.18921 32.4673 -0.376614 -166.847 25.0006 -6.8297 4.54188e-006 -4.6773e-006 -1.00936 5.59624 -48.8668 4.05398 -8.88839e-007 -1.61858e-006 -2.03215 26.4398 76.1988 -29.5563 -7.28701 32.5581 -5.99406 
42.5308 80.3283 -3.22542 -2.09445 7.05294 0.648033 0.0503298 -2.03283 0.196354 0.105583 -0.0626463 0.388073 0.100966 1.58242 0.386407 5.26328 -0.420132 -0.893784 -2.08795 1.71469 0.0605906 64.9611 -3.66252 -2.69604 107.207 9.71878 5.2579 6.52621e-006 -5.76373e-007 -1.63151e-006 12.9088 16.6987 -2.42442 -1.33336e-006 1.20101e-006 -3 8.02893 -4.95143 0.697686 -59.7677 -8.84727 5.49988 -114.264 11.9655 -7.20128 1.99755e-006 -1.00587e-005 -3.55414e-008 -7.14496 25.2647 2.25812 5.98254e-007 9.18861e-007 3 -8.02985 -4.95147 -0.69767 -177.04 25.5252 -4.1692 180 7.01562e-015 178.992 -176.132 45.6564 177.249 1.12062e-006 7.64864e-007 1.70252 -37.6876 79.8843 40.7563 8.19681 32.1447 -0.451386 -166.69 25.405 -6.90219 4.54188e-006 -4.6773e-006 -1.00701 5.91074 -49.7097 4.22318 -8.88839e-007 -1.61859e-006 -2.19824 27.9483 77.0287 -31.2753 -7.35352 32.3516 -5.68805 
42.5046 80.0326 -3.23191 -2.17734 7.14017 0.628858 0.062456 -2.03801 0.19986 0.129917 -0.0729528 0.393964 0.125237 1.57211 0.391891 5.35718 -0.445783 -0.888648 -2.13674 1.64991 0.0790527 65.0731 -3.68528 -2.71663 107.061 9.93239 5.15857 6.52621e-006 -5.76373e-007 -1.63151e-006 12.9772 16.7221 -2.4339 -1.33336e-006 1.20101e-006 -3 8.02893 -4.95143 0.697686 -59.7548 -8.85778 5.50623 -114.217 12.115 -7.10705 1.99755e-006 -1.00587e-005 -3.55414e-008 -7.19482 25.2392 2.26893 5.98254e-007 9.18861e-007 3 -8.02985 -4.95147 -0.69767 -176.816 25.9601 -4.29804 180 7.01561e-015 178.985 -176.019 46.5563 177.178 1.12062e-006 7.64864e-007 1.79148 -40.7874 80.5873 43.9825 8.20434 31.7924 -0.535383 -166.535 25.8096 -6.97034 4.54188e-006 -4.6773e-006 -1.00489 6.23799 -50.5445 4.40137 -8.8884e-007 -1.61859e-006 -2.36799 29.7185 77.86 -33.2621 -7.4246 32.12 -5.34853 
